<svg width="23" height="7" viewBox="0 0 23 7" fill="none" xmlns="http://www.w3.org/2000/svg">
<path d="M6.70039 3.50156C6.70039 4.82705 5.62587 5.90156 4.30039 5.90156C2.97491 5.90156 1.90039 4.82705 1.90039 3.50156C1.90039 2.17608 2.97491 1.10156 4.30039 1.10156C5.62587 1.10156 6.70039 2.17608 6.70039 3.50156Z" stroke="#364152" stroke-width="2"/>
<path d="M13.9004 3.50156C13.9004 4.82705 12.8259 5.90156 11.5004 5.90156C10.1749 5.90156 9.10039 4.82705 9.10039 3.50156C9.10039 2.17608 10.1749 1.10156 11.5004 1.10156C12.8259 1.10156 13.9004 2.17608 13.9004 3.50156Z" stroke="#364152" stroke-width="2"/>
<path d="M21.1004 3.50156C21.1004 4.82705 20.0259 5.90156 18.7004 5.90156C17.3749 5.90156 16.3004 4.82705 16.3004 3.50156C16.3004 2.17608 17.3749 1.10156 18.7004 1.10156C20.0259 1.10156 21.1004 2.17608 21.1004 3.50156Z" stroke="#364152" stroke-width="2"/>
</svg>
