<svg width="20" height="20" viewBox="0 0 20 20" fill="none" xmlns="http://www.w3.org/2000/svg">
<path d="M10.0007 10.0003C12.3018 10.0003 14.1673 8.13485 14.1673 5.83366C14.1673 3.53247 12.3018 1.66699 10.0007 1.66699C7.69946 1.66699 5.83398 3.53247 5.83398 5.83366C5.83398 8.13485 7.69946 10.0003 10.0007 10.0003Z" stroke="#007200" stroke-width="1.5" stroke-linecap="round" stroke-linejoin="round"/>
<path d="M18.9603 14.8838V16.5755C18.9603 18.0088 17.627 19.1671 15.9853 19.1671C14.3436 19.1671 13.002 18.0088 13.002 16.5755V14.8838C13.002 16.3171 14.3353 17.3338 15.9853 17.3338C17.627 17.3338 18.9603 16.3088 18.9603 14.8838Z" stroke="#007200" stroke-width="1.5" stroke-linecap="round" stroke-linejoin="round"/>
<path d="M18.9588 12.5911C18.9588 13.0078 18.8422 13.3911 18.6422 13.7244C18.1505 14.5328 17.1422 15.0411 15.9755 15.0411C14.8088 15.0411 13.8005 14.5244 13.3088 13.7244C13.1088 13.3911 12.9922 13.0078 12.9922 12.5911C12.9922 11.8745 13.3255 11.2328 13.8588 10.7661C14.4005 10.2911 15.1421 10.0078 15.9671 10.0078C16.7921 10.0078 17.5338 10.2995 18.0755 10.7661C18.6255 11.2245 18.9588 11.8745 18.9588 12.5911Z" stroke="#007200" stroke-width="1.5" stroke-linecap="round" stroke-linejoin="round"/>
<path d="M18.9603 12.5917V14.8833C18.9603 16.3167 17.627 17.3333 15.9853 17.3333C14.3436 17.3333 13.002 16.3083 13.002 14.8833V12.5917C13.002 11.1583 14.3353 10 15.9853 10C16.8103 10 17.552 10.2916 18.0937 10.7583C18.627 11.225 18.9603 11.875 18.9603 12.5917Z" stroke="#007200" stroke-width="1.5" stroke-linecap="round" stroke-linejoin="round"/>
<path d="M2.8418 18.3333C2.8418 15.1083 6.05015 12.5 10.0002 12.5" stroke="#007200" stroke-width="1.5" stroke-linecap="round" stroke-linejoin="round"/>
</svg>
